<svg width="250" height="250" viewBox="0 0 250 250" fill="none" xmlns="http://www.w3.org/2000/svg">
<rect width="250" height="250" rx="10" fill="url(#paint0_linear_2473_29)"/>
<path fill-rule="evenodd" clip-rule="evenodd" d="M40.6263 103.844C-14.2706 114.193 9.40052 189.589 73.831 171.02C118.3 158.204 118.523 168.016 157.988 172.287C167.721 173.341 177.199 172.698 188.579 168.612C224.997 158.474 244.293 136.791 240.173 116.34C237.093 101.043 220.908 86.4349 188.988 77.8696C146.303 66.4162 88.1044 94.6207 40.6263 103.844Z" fill="#F648A5"/>
<path d="M95.402 200.926V150.185C95.402 146.713 98.2336 143.882 101.704 143.882H112.332C114.563 143.882 116.479 144.94 117.666 146.828L153.842 204.284C155.031 206.171 156.947 207.229 159.176 207.229H192.27C194.636 207.229 196.664 206.026 197.799 203.95C198.933 201.876 198.851 199.517 197.575 197.527L152.017 126.414C150.656 124.288 150.659 121.72 152.027 119.598L195.176 52.7198C196.459 50.7294 196.547 48.3674 195.414 46.2879C194.28 44.2066 192.249 43 189.88 43H156.919C154.642 43 152.687 44.1068 151.514 46.0602L117.883 102.112C116.712 104.066 114.755 105.173 112.479 105.173H101.704C98.2327 105.173 95.402 102.341 95.402 98.8704V49.3022C95.402 45.8307 92.5705 43 89.0999 43H58.3004C54.8289 43 52 45.8316 52 49.3022V200.927C52 204.398 54.8298 207.229 58.3004 207.229H89.0999C92.5714 207.229 95.402 204.397 95.402 200.927V200.926Z" fill="black"/>
<defs>
<linearGradient id="paint0_linear_2473_29" x1="125" y1="0" x2="125" y2="250" gradientUnits="userSpaceOnUse">
<stop stop-color="#5AC82D"/>
<stop offset="1" stop-color="#00AFEB"/>
</linearGradient>
</defs>
</svg>
