<svg width="165" height="82" viewBox="0 0 165 82" fill="none" xmlns="http://www.w3.org/2000/svg">
<path d="M55.4548 66.4172L50.1776 72.3643L48.8096 71.1505L53.092 66.325L50.4073 63.9424L46.1248 68.7683L44.7568 67.5545L50.0344 61.6073L55.4548 66.4172V66.4172ZM57.5708 76.5902C56.8092 76.2722 56.1911 75.8215 55.7166 75.2377C55.2422 74.6541 54.9524 74.0019 54.8471 73.2811C54.7417 72.56 54.8393 71.8396 55.1399 71.1198C55.4403 70.4002 55.8837 69.8241 56.4703 69.3919C57.0569 68.9599 57.7245 68.7072 58.473 68.634C59.2217 68.5605 59.9768 68.683 60.7384 69.0009C61.5 69.3189 62.1165 69.7689 62.5874 70.351C63.0582 70.9334 63.348 71.5857 63.4567 72.3079C63.5656 73.0304 63.4699 73.7515 63.1692 74.4714C62.8689 75.1912 62.4236 75.7663 61.8334 76.1969C61.2436 76.6277 60.576 76.8804 59.831 76.955C59.0858 77.0296 58.3324 76.9081 57.5707 76.5901L57.5708 76.5902ZM58.1745 75.1437C58.6079 75.3246 59.0408 75.3884 59.4732 75.3349C59.9059 75.2816 60.2961 75.1183 60.6441 74.845C60.9918 74.5719 61.2607 74.2082 61.4503 73.7539C61.6398 73.2996 61.7093 72.8526 61.6588 72.4132C61.6084 71.9737 61.4503 71.5814 61.184 71.2364C60.9176 70.8913 60.5678 70.6285 60.1346 70.4475C59.7013 70.2666 59.2683 70.2028 58.8359 70.2563C58.4035 70.3096 58.013 70.4729 57.6653 70.7462C57.3173 71.0193 57.0486 71.3833 56.8588 71.8375C56.6692 72.2915 56.5998 72.7385 56.6502 73.178C56.7004 73.6175 56.8588 74.0098 57.1251 74.355C57.3914 74.6999 57.741 74.9627 58.1744 75.1436L58.1745 75.1437ZM79.7832 74.0017L78.8364 81.8964L68.4156 80.6467L69.3624 72.7523L71.1781 72.97L70.4099 79.3759L72.9025 79.6749L73.6707 73.2687L75.4866 73.4867L74.7184 79.8926L77.1995 80.1901L77.9677 73.7842L79.7834 74.0018L79.7832 74.0017ZM88.6355 79.9301L84.9502 80.1472L84.3475 81.8896L82.4652 82.0003L85.5353 73.8546L87.3495 73.7476L91.3662 81.4759L89.4386 81.5895L88.6355 79.9302V79.9301ZM87.9749 78.5694L86.5373 75.6047L85.4578 78.7177L87.9749 78.5694ZM98.9981 72.9869L95.3129 73.8385L96.7764 80.1221L94.9945 80.534L93.2045 72.7869L98.6718 71.5236L98.9982 72.9871L98.9981 72.9869ZM106.691 74.773L103.324 76.2859L103.38 78.1288L101.66 78.9017L101.633 70.1963L103.291 69.4516L109.793 75.247L108.032 76.0384L106.691 74.773ZM105.59 73.7362L103.192 71.4761L103.29 74.7696L105.59 73.7362ZM118.663 68.9148L115.876 65.0566L116.263 69.6044L115.599 70.0817L111.465 68.3385L114.189 72.1296L112.787 73.1371L108.147 66.68L109.383 65.792L114.683 68.068L114.18 62.3451L115.416 61.457L120.065 67.9073L118.663 68.9148H118.663Z" fill="#F648A5"/>
<path d="M54.3532 16.4231L51.2966 12.775L52.009 17.2833L51.3808 17.8071L47.1324 16.3655L50.122 19.9512L48.796 21.0568L43.7041 14.9498L44.8731 13.9751L50.3231 15.8642L49.4096 10.1925L50.5788 9.2178L55.6795 15.3175L54.3533 16.4231H54.3532ZM63.0474 9.88046L59.6899 11.4153L59.7577 13.2576L58.0427 14.0413L57.9606 5.33661L59.6136 4.58103L66.1526 10.3347L64.3963 11.1373L63.0474 9.88036V9.88046ZM61.9396 8.85058L59.5274 6.60601L59.6461 9.89891L61.9395 8.85058H61.9396ZM70.408 1.25837C71.0951 1.10323 71.7173 1.0831 72.2751 1.19781C72.8328 1.31252 73.2958 1.54954 73.6641 1.90897C74.0325 2.26821 74.2817 2.73586 74.4117 3.31209C74.5403 3.88082 74.5157 4.40837 74.3383 4.89502C74.1609 5.3814 73.8446 5.79443 73.3893 6.13392C72.9344 6.47341 72.3633 6.72072 71.6765 6.87586L70.1141 7.22852L70.5969 9.367L68.8019 9.77224L67.0508 2.01617L70.408 1.25827V1.25837ZM71.2464 5.43593C71.7856 5.31417 72.1693 5.10506 72.3976 4.80925C72.6256 4.51315 72.6913 4.15085 72.5946 3.72262C72.4963 3.28669 72.2805 2.9842 71.9473 2.81477C71.6141 2.64563 71.1777 2.62171 70.6385 2.74346L69.176 3.07359L69.7839 5.76605L71.2464 5.43593ZM83.371 6.22757L79.6801 6.30176L79.0102 8.01933L77.125 8.05708L80.5085 0.0363508L82.3256 0L86.04 7.87801L84.1094 7.91677L83.371 6.22757ZM82.7638 4.84226L81.442 1.82412L80.2426 4.89298L82.7638 4.84226ZM98.5489 6.004C98.3588 7.03925 97.8577 7.78843 97.0453 8.25135C96.2328 8.71426 95.1612 8.85837 93.8305 8.68357L93.6747 9.53271L92.0102 9.22726L92.1679 8.36708C90.8557 8.04938 89.9021 7.5299 89.3069 6.80863C88.7117 6.08736 88.5077 5.21634 88.695 4.1961C88.8836 3.16817 89.3834 2.42641 90.1945 1.97101C91.0055 1.51533 92.0815 1.36825 93.4225 1.52961L93.5701 0.725068L95.2347 1.03053L95.0892 1.82384C96.3938 2.14015 97.3434 2.66084 97.938 3.38582C98.5326 4.11088 98.7362 4.98349 98.549 6.00391L98.5489 6.004ZM94.091 7.26468C94.8942 7.33507 95.5197 7.24002 95.9679 6.97963C96.4161 6.71942 96.696 6.28368 96.8081 5.67313C97.0268 4.48144 96.3663 3.67495 94.8268 3.25377L94.091 7.26468ZM90.4489 4.51779C90.233 5.69474 90.8921 6.50846 92.4262 6.95923L93.162 2.94849C92.3516 2.87672 91.7246 2.96769 91.2816 3.22112C90.8386 3.47475 90.561 3.90697 90.4489 4.51779ZM103.933 12.897C103.183 12.554 102.58 12.0828 102.125 11.4835C101.671 10.8845 101.403 10.2228 101.321 9.49896C101.24 8.77482 101.362 8.05828 101.686 7.3487C102.01 6.6394 102.473 6.07837 103.073 5.66609C103.674 5.2538 104.35 5.02336 105.1 4.97505C105.851 4.92692 106.602 5.07427 107.352 5.41756C108.103 5.76058 108.704 6.23082 109.155 6.82848C109.606 7.42613 109.874 8.08777 109.959 8.8133C110.044 9.53883 109.924 10.2563 109.6 10.9657C109.275 11.6753 108.811 12.2354 108.207 12.646C107.603 13.0569 106.927 13.2872 106.18 13.337C105.433 13.3867 104.684 13.2401 103.933 12.8971V12.897ZM104.585 11.4714C105.012 11.6666 105.443 11.7447 105.877 11.7058C106.311 11.667 106.706 11.5167 107.063 11.2553C107.42 10.9937 107.701 10.6391 107.905 10.1915C108.11 9.74377 108.194 9.29959 108.159 8.85846C108.123 8.41762 107.978 8.02035 107.723 7.66649C107.469 7.31291 107.128 7.03833 106.701 6.84341C106.274 6.64821 105.843 6.56985 105.409 6.60879C104.975 6.64774 104.579 6.79787 104.223 7.05956C103.866 7.32097 103.585 7.67549 103.38 8.12338C103.176 8.57081 103.091 9.01527 103.127 9.4564C103.163 9.89724 103.308 10.2945 103.563 10.6481C103.817 11.002 104.158 11.2763 104.585 11.4715L104.585 11.4714ZM121.118 14.9792L116.026 21.086L114.613 19.9076L116.701 17.4038L113.926 15.0905L111.839 17.5943L110.425 16.416L115.517 10.3092L116.931 11.4876L114.923 13.8955L117.697 16.2086L119.705 13.8007L121.118 14.9793V14.9792Z" fill="#F648A5"/>
<path d="M5.76262 51.438V44.7012C5.76262 44.2403 6.13855 43.8645 6.59934 43.8645H8.01043C8.30652 43.8645 8.56089 44.0051 8.71853 44.2554L13.5217 51.8838C13.6793 52.1344 13.9337 52.2748 14.2298 52.2748H18.6234C18.9376 52.2748 19.2069 52.1152 19.3575 51.8395C19.5081 51.564 19.4974 51.251 19.328 50.9865L13.2792 41.5454C13.0982 41.2631 13.0987 40.9221 13.2806 40.6404L19.0093 31.7612C19.1797 31.4967 19.1912 31.1833 19.0408 30.9071C18.8904 30.6309 18.6205 30.4707 18.3061 30.4707H13.9299C13.6276 30.4707 13.3681 30.6179 13.2126 30.8771L8.74737 38.3189C8.59177 38.5782 8.33203 38.7251 8.02981 38.7251H6.59924C6.13837 38.7251 5.76253 38.3495 5.76253 37.8884V31.3074C5.76253 30.8465 5.38659 30.4707 4.92581 30.4707H0.836717C0.375841 30.4707 0 30.8466 0 31.3074V51.4382C0 51.899 0.375934 52.2749 0.836717 52.2749H4.92581C5.38668 52.2749 5.76253 51.8989 5.76253 51.4382L5.76262 51.438Z" fill="white"/>
<path d="M27.5237 51.7242L28.3688 49.3994C28.4913 49.0625 28.7968 48.8487 29.1554 48.8487H37.0163C37.3748 48.8487 37.6804 49.0625 37.8029 49.3994L38.648 51.7242C38.7705 52.0612 39.076 52.275 39.4346 52.275H43.5389C43.8242 52.275 44.0697 52.1454 44.2304 51.9096C44.3911 51.6738 44.4221 51.3978 44.3179 51.1322L36.4094 31.0015C36.2811 30.6749 35.9816 30.4707 35.6306 30.4707H30.5412C30.1903 30.4707 29.8908 30.6748 29.7625 31.0015L21.854 51.1322C21.7498 51.3978 21.7808 51.6738 21.9415 51.9096C22.1022 52.1454 22.3477 52.275 22.633 52.275H26.7373C27.0958 52.275 27.4014 52.0612 27.5239 51.7242H27.5237ZM32.5251 37.8842C32.5278 37.8764 32.5307 37.8685 32.5335 37.8605C32.6177 37.6221 32.8329 37.4698 33.0858 37.4698C33.3388 37.4698 33.5539 37.6221 33.6381 37.8605C33.6409 37.8685 33.6438 37.8764 33.6466 37.8842L35.4908 43.0587C35.5849 43.3232 35.548 43.5925 35.3864 43.8218C35.2245 44.0513 34.9833 44.1763 34.7027 44.1763H31.4688C31.1882 44.1763 30.947 44.0512 30.7851 43.8218C30.6235 43.5926 30.5866 43.3232 30.6807 43.0587L32.525 37.8842H32.5251Z" fill="white"/>
<path d="M47.6523 31.3074V51.4382C47.6523 51.899 48.0283 52.2749 48.4891 52.2749H52.5782C53.039 52.2749 53.4149 51.8989 53.4149 51.4382V46.2589C53.4149 45.798 53.7908 45.4222 54.2516 45.4222H56.2806C61.6693 45.3909 65.7809 43.6779 65.7809 37.9465C65.7809 32.2153 61.6693 30.4707 56.2806 30.4707H48.4891C48.0282 30.4707 47.6523 30.8466 47.6523 31.3074ZM59.8626 37.9465C59.8626 39.9088 58.3053 40.4384 56.561 40.4384H54.2517C53.7908 40.4384 53.415 40.0625 53.415 39.6017V36.2914C53.415 35.8305 53.7909 35.4547 54.2517 35.4547H56.561C58.3053 35.4547 59.8626 35.984 59.8626 37.9465Z" fill="white"/>
<path d="M159.059 31.3074V37.982C159.059 38.4428 158.683 38.8187 158.223 38.8187H151.797C151.337 38.8187 150.961 38.4427 150.961 37.982V31.3074C150.961 30.8465 150.585 30.4707 150.124 30.4707H146.035C145.574 30.4707 145.198 30.8466 145.198 31.3074V51.4382C145.198 51.899 145.574 52.2749 146.035 52.2749H150.124C150.585 52.2749 150.961 51.8989 150.961 51.4382V44.795C150.961 44.334 151.337 43.9583 151.797 43.9583H158.223C158.684 43.9583 159.059 44.334 159.059 44.795V51.4382C159.059 51.899 159.435 52.2749 159.896 52.2749H163.985C164.446 52.2749 164.822 51.8989 164.822 51.4382V31.3074C164.822 30.8465 164.446 30.4707 163.985 30.4707H159.896C159.435 30.4707 159.059 30.8466 159.059 31.3074Z" fill="white"/>
<path d="M71.85 51.7242L72.6954 49.3994C72.8179 49.0625 73.1232 48.8487 73.4817 48.8487H81.3428C81.7013 48.8487 82.0066 49.0625 82.1291 49.3994L82.9745 51.7242C83.097 52.0612 83.4023 52.275 83.7608 52.275H87.8654C88.1507 52.275 88.3962 52.1454 88.5569 51.9096C88.7174 51.6738 88.7485 51.3978 88.6441 51.1322L80.7356 31.0015C80.6073 30.6749 80.3078 30.4707 79.9568 30.4707H74.8675C74.5165 30.4707 74.217 30.6748 74.0887 31.0015L66.1804 51.1322C66.0759 51.3978 66.1069 51.6738 66.2676 51.9096C66.4283 52.1454 66.6738 52.275 66.9591 52.275H71.0637C71.4222 52.275 71.7275 52.0612 71.85 51.7242ZM76.8515 37.8842C76.8541 37.8764 76.8572 37.8685 76.8598 37.8605C76.944 37.6221 77.1592 37.4698 77.4121 37.4698C77.6651 37.4698 77.8802 37.6221 77.9644 37.8605C77.9672 37.8685 77.9701 37.8764 77.9728 37.8842L79.8171 43.0587C79.9114 43.3232 79.8746 43.5925 79.7127 43.8218C79.551 44.0513 79.3096 44.1763 79.029 44.1763H75.7954C75.5148 44.1763 75.2733 44.0512 75.1117 43.8218C74.9498 43.5926 74.913 43.3232 75.0073 43.0587L76.8515 37.8842Z" fill="white"/>
<path d="M118.483 41.3722C118.483 47.4463 122.377 52.7416 130.164 52.7416C137.951 52.7416 141.845 47.4463 141.845 41.3722C141.845 35.2983 137.951 30.0029 130.164 30.0029C122.377 30.0029 118.483 35.2983 118.483 41.3722ZM135.926 41.3722C135.926 44.861 133.933 47.4463 130.164 47.4463C126.395 47.4463 124.401 44.861 124.401 41.3722C124.401 37.8835 126.395 35.2983 130.164 35.2983C133.933 35.2983 135.926 37.8835 135.926 41.3722Z" fill="white"/>
<path d="M105.524 52.6839V51.6114C105.524 51.1809 105.846 50.8237 106.274 50.7791C112.197 50.1623 115.958 46.8156 115.958 41.3726C115.958 35.9299 112.197 32.5833 106.274 31.9661C105.846 31.9218 105.524 31.5644 105.524 31.1341V30.0613C105.524 29.6005 105.148 29.2246 104.687 29.2246H100.909C100.448 29.2246 100.073 29.6005 100.073 30.0613V31.1259C100.073 31.5595 99.7453 31.9185 99.3138 31.9589C93.3016 32.5222 89.4819 35.8994 89.4819 41.3726C89.4819 46.8461 93.3016 50.223 99.3138 50.7864C99.7453 50.827 100.073 51.186 100.073 51.6194V52.6839C100.073 53.145 100.448 53.5207 100.909 53.5207H104.687C105.148 53.5207 105.524 53.145 105.524 52.6839ZM95.2445 41.3726C95.2445 39.5082 96.0131 37.4131 99.0606 36.7605C99.3162 36.7058 99.5585 36.7636 99.762 36.9281C99.9651 37.0923 100.073 37.3174 100.073 37.5788V45.1668C100.073 45.4282 99.9651 45.6532 99.762 45.8175C99.5585 45.9818 99.3161 46.0397 99.0606 45.9851C96.0131 45.3324 95.2445 43.2375 95.2445 41.3728V41.3726ZM106.56 36.791C109.439 37.5002 110.196 39.5499 110.196 41.3726C110.196 43.1953 109.439 45.2451 106.56 45.9542C106.302 46.0178 106.054 45.9645 105.844 45.8006C105.635 45.6365 105.524 45.4078 105.524 45.1417V37.6037C105.524 37.3378 105.635 37.109 105.844 36.945C106.054 36.7809 106.302 36.7274 106.56 36.791Z" fill="white"/>
</svg>
