<svg width="73" height="46" viewBox="0 0 73 46" fill="none" xmlns="http://www.w3.org/2000/svg">
<path fill-rule="evenodd" clip-rule="evenodd" d="M12.8723 7.14675C19.7215 2.38229 28.039 0 36.3561 0C44.6733 0 52.9907 2.38229 59.8399 7.14675C60.4479 7.56975 61.1889 7.61663 61.8457 7.2738C65.2751 5.48413 68.8323 5.07462 70.8598 6.6409C75.2663 10.0442 70.9487 18.0641 66.8757 22.4663C66.6988 22.6575 66.4423 22.7229 66.1956 22.6404C65.9485 22.5576 65.7832 22.3503 65.7574 22.0912C65.15 16.0211 58.6582 11.2434 50.7401 11.2434C44.5553 11.2434 39.2413 14.158 36.9214 18.3264C36.8044 18.5369 36.5974 18.6589 36.3564 18.6589C36.1155 18.6589 35.9088 18.5372 35.7914 18.3267C33.471 14.1582 28.1566 11.2428 21.972 11.2428C14.054 11.2428 7.5622 16.0218 6.95487 22.0912C6.92894 22.3503 6.76368 22.5576 6.51657 22.64C6.26982 22.7229 6.0134 22.6572 5.83644 22.4663C1.76349 18.0641 -2.55372 10.0445 1.85237 6.6409C3.88019 5.07498 7.43709 5.48413 10.8665 7.2738C11.523 7.61663 12.2643 7.56975 12.8723 7.14675ZM36.9214 27.7193C39.2416 31.8873 44.5553 34.8026 50.7401 34.8026C52.242 34.8026 53.6928 34.6305 55.0612 34.3103C55.3574 34.2411 55.6534 34.3808 55.7882 34.6534C55.9231 34.9257 55.8546 35.2457 55.6201 35.4391C51.0681 39.1935 45.1364 43.2051 41.6671 44.6938C37.8305 46.3396 35.3803 46.4625 31.4855 44.8781C28.0981 43.5001 21.8515 39.3436 17.1018 35.442C16.8667 35.2489 16.7978 34.929 16.9324 34.6561C17.067 34.3831 17.3632 34.243 17.6597 34.3123C19.0255 34.6311 20.4734 34.8026 21.972 34.8026C28.1566 34.8026 33.4712 31.8873 35.7914 27.7193C35.9085 27.5086 36.1155 27.3871 36.3564 27.3871C36.5974 27.3871 36.804 27.5086 36.9214 27.7193Z" fill="white"/>
<path fill-rule="evenodd" clip-rule="evenodd" d="M50.7404 26.578C49.1089 26.5744 45.1293 24.0991 46.088 21.4955C46.3971 20.6562 47.3412 20.1094 48.3837 20.1094C49.3969 20.1094 50.2676 20.652 50.6478 21.4278C50.667 21.467 50.7009 21.4896 50.7404 21.4896C50.7799 21.4896 50.8137 21.467 50.8329 21.4278C51.2131 20.652 52.0837 20.1094 53.097 20.1094C54.1394 20.1094 55.0836 20.6562 55.3927 21.4955C56.3515 24.0991 52.3719 26.5743 50.7404 26.578Z" fill="white"/>
<path fill-rule="evenodd" clip-rule="evenodd" d="M21.9722 26.578C20.3407 26.5744 16.3611 24.0991 17.32 21.4955C17.629 20.6562 18.5732 20.1094 19.6156 20.1094C20.6289 20.1094 21.4995 20.652 21.8797 21.4278C21.8989 21.467 21.9328 21.4896 21.9722 21.4896C22.0117 21.4896 22.0455 21.467 22.0648 21.4278C22.445 20.652 23.3156 20.1094 24.3289 20.1094C25.3713 20.1094 26.3155 20.6562 26.6245 21.4955C27.5834 24.0991 23.6037 26.5743 21.9722 26.578Z" fill="white"/>
</svg>
